<svg xmlns="http://www.w3.org/2000/svg" width="44" height="44" viewBox="0 0 44 44"><g fill="none" fill-rule="evenodd" stroke="#000" stroke-width="2"><path stroke-dasharray="2,2" stroke-opacity=".25" d="M12.53748 1h18.92504c4.01183 0 5.46662.417715 6.93329 1.202097 1.46666.784382 2.61771 1.935431 3.40209 3.402097C42.58228 7.070861 43 8.525649 43 12.53748v18.92504c0 4.01183-.41772 5.46662-1.2021 6.93329-.78438 1.46666-1.93543 2.61771-3.40209 3.40209C36.92914 42.58228 35.47435 43 31.46252 43H12.53748c-4.011831 0-5.466619-.41772-6.933286-1.2021-1.466666-.78438-2.617715-1.93543-3.402097-3.40209C1.417715 36.92914 1 35.47435 1 31.46252V12.53748c0-4.011831.417715-5.466619 1.202097-6.933286.784382-1.466666 1.935431-2.617715 3.402097-3.402097C7.070861 1.417715 8.525649 1 12.53748 1z"/><g stroke-linecap="round" stroke-linejoin="round" stroke-opacity=".5"><path d="M22 8.931866l12.34197 7.602201L22 24.13627 9.658026 16.534067z"/><path d="M34.341976 21.53407l-12.34198 7.602201-12.34197-7.602201"/><path d="M34.341976 26.53407l-12.34198 7.602201-12.34197-7.602201"/></g></g></svg>
